<svg xmlns="http://www.w3.org/2000/svg" width="30" height="26" viewBox="0 0 30 26" fill="none">
<path d="M19.2502 0.25C19.965 0.249774 20.6535 0.519743 21.1776 1.00579C21.7017 1.49183 22.0228 2.15803 22.0764 2.87083L22.0835 3.08333C22.0835 3.43032 22.2109 3.76523 22.4415 4.02453C22.6721 4.28383 22.9898 4.44949 23.3344 4.49008L23.5002 4.5H24.9168C26.0009 4.49994 27.044 4.91413 27.8327 5.65782C28.6214 6.40151 29.0962 7.41849 29.1597 8.50067L29.1668 8.75V21.5C29.1669 22.584 28.7527 23.6271 28.009 24.4159C27.2653 25.2046 26.2483 25.6793 25.1662 25.7429L24.9168 25.75H5.0835C3.99945 25.7501 2.95635 25.3359 2.16763 24.5922C1.3789 23.8485 0.904177 22.8315 0.84058 21.7493L0.833496 21.5V8.75C0.833436 7.66595 1.24762 6.62285 1.99131 5.83413C2.73501 5.04541 3.75198 4.57068 4.83416 4.50708L5.0835 4.5H6.50016C6.87589 4.5 7.23622 4.35074 7.5019 4.08507C7.76757 3.81939 7.91683 3.45906 7.91683 3.08333C7.9166 2.36852 8.18657 1.68003 8.67262 1.15589C9.15866 0.63175 9.82486 0.310695 10.5377 0.257084L10.7502 0.25H19.2502ZM15.0002 10.1667C13.947 10.1666 12.9313 10.5575 12.15 11.2637C11.3687 11.9699 10.8774 12.941 10.7714 13.9888L10.7558 14.2042L10.7502 14.4167L10.7558 14.6292C10.7974 15.4597 11.0817 16.2597 11.5735 16.9302C12.0653 17.6007 12.743 18.1123 13.5226 18.4014C14.3022 18.6906 15.1496 18.7447 15.9597 18.557C16.7697 18.3694 17.507 17.9482 18.0801 17.3456C18.6531 16.7431 19.0369 15.9857 19.1837 15.1673C19.3306 14.3488 19.2341 13.5052 18.9063 12.741C18.5784 11.9769 18.0336 11.3257 17.3393 10.8681C16.645 10.4105 15.8317 10.1666 15.0002 10.1667Z" fill="#1D5D9B"/>
</svg>