<svg xmlns="http://www.w3.org/2000/svg" width="18" height="18" viewBox="0 0 18 18" fill="none">
<path d="M12.6281 3.375C13.0377 3.37466 13.4432 3.45607 13.8208 3.61448C14.1985 3.77289 14.5407 4.0051 14.8275 4.2975C15.4184 4.89734 15.7496 5.70553 15.7496 6.5475C15.7496 7.38948 15.4184 8.19766 14.8275 8.7975L9 14.6981L3.1725 8.7975C2.58164 8.19766 2.25044 7.38948 2.25044 6.5475C2.25044 5.70553 2.58164 4.89734 3.1725 4.2975C3.45942 4.00531 3.80169 3.77322 4.17932 3.61479C4.55695 3.45636 4.96236 3.37476 5.37187 3.37476C5.78138 3.37476 6.18679 3.45636 6.56442 3.61479C6.94205 3.77322 7.28432 4.00531 7.57125 4.2975L9 5.76L10.4231 4.30875C10.709 4.01287 11.0516 3.77767 11.4305 3.61724C11.8094 3.4568 12.2167 3.37441 12.6281 3.375ZM12.6281 2.25C12.0688 2.24953 11.515 2.36073 10.9992 2.5771C10.4834 2.79346 10.016 3.11063 9.62437 3.51L9 4.14L8.37562 3.51C7.98353 3.11135 7.51601 2.79473 7.0003 2.57861C6.4846 2.36249 5.93103 2.25118 5.37187 2.25118C4.81271 2.25118 4.25914 2.36249 3.74344 2.57861C3.22774 2.79473 2.76021 3.11135 2.36812 3.51C1.57043 4.32204 1.12347 5.41483 1.12347 6.55313C1.12347 7.69143 1.57043 8.78421 2.36812 9.59625L9 16.3125L15.6319 9.59625C16.4296 8.78421 16.8765 7.69143 16.8765 6.55313C16.8765 5.41483 16.4296 4.32204 15.6319 3.51C15.2399 3.11113 14.7724 2.7943 14.2567 2.57797C13.741 2.36165 13.1874 2.25016 12.6281 2.25Z" fill="#1D5D9B"/>
</svg>