<svg width="494" height="532" viewBox="0 0 494 532" fill="none" xmlns="http://www.w3.org/2000/svg">
<rect x="214" y="48" width="280" height="407" rx="16" fill="#1D5D9B"/>
<mask id="mask0_2_2041" style="mask-type:alpha" maskUnits="userSpaceOnUse" x="357" y="48" width="137" height="484">
<rect x="357" y="48" width="137" height="484" fill="#F6F6F5"/>
</mask>
<g mask="url(#mask0_2_2041)">
<path d="M940.556 -197.673C965.885 -216.419 689.697 -299.807 543.924 -57.3991C398.151 185.009 112.262 348.554 96.6343 348.554" stroke="white" stroke-opacity="0.32"/>
<path d="M940.556 -197.673C965.885 -216.419 689.697 -299.807 543.924 -57.3991C398.151 185.009 112.262 348.554 96.6343 348.554" stroke="white" stroke-opacity="0.32"/>
<path d="M906.875 -120.161C932.203 -138.908 656.016 -222.296 510.242 20.1122C364.469 262.52 78.5811 426.065 62.9529 426.065" stroke="white" stroke-opacity="0.32"/>
<path d="M906.875 -120.161C932.203 -138.908 656.016 -222.296 510.242 20.1122C364.469 262.52 78.5811 426.065 62.9529 426.065" stroke="white" stroke-opacity="0.32"/>
<path d="M873.194 -42.6492C898.522 -61.3955 622.334 -144.784 476.561 97.6243C330.788 340.032 44.8997 503.577 29.2715 503.577" stroke="white" stroke-opacity="0.32"/>
<path d="M873.194 -42.6492C898.522 -61.3955 622.334 -144.784 476.561 97.6243C330.788 340.032 44.8997 503.577 29.2715 503.577" stroke="white" stroke-opacity="0.32"/>
<path d="M839.512 34.8621C864.841 16.1158 588.653 -67.2726 442.879 175.136C297.106 417.544 11.2182 581.088 -4.41003 581.088" stroke="white" stroke-opacity="0.32"/>
<path d="M839.512 34.8621C864.841 16.1158 588.653 -67.2726 442.879 175.136C297.106 417.544 11.2182 581.088 -4.41003 581.088" stroke="white" stroke-opacity="0.32"/>
<path d="M805.831 112.374C831.159 93.628 554.971 10.2395 409.198 252.648C263.425 495.056 -22.4632 658.601 -38.0914 658.601" stroke="white" stroke-opacity="0.32"/>
<path d="M805.831 112.374C831.159 93.628 554.971 10.2395 409.198 252.648C263.425 495.056 -22.4632 658.601 -38.0914 658.601" stroke="white" stroke-opacity="0.32"/>
<path d="M772.149 189.885C797.478 171.139 521.29 87.7508 375.517 330.159C229.743 572.567 -56.1446 736.112 -71.7728 736.112" stroke="white" stroke-opacity="0.32"/>
<path d="M772.149 189.885C797.478 171.139 521.29 87.7508 375.517 330.159C229.743 572.567 -56.1446 736.112 -71.7728 736.112" stroke="white" stroke-opacity="0.32"/>
<path d="M738.468 267.398C763.796 248.651 487.609 165.263 341.835 407.671C196.062 650.079 -89.826 813.624 -105.454 813.624" stroke="white" stroke-opacity="0.32"/>
<path d="M738.468 267.398C763.796 248.651 487.609 165.263 341.835 407.671C196.062 650.079 -89.826 813.624 -105.454 813.624" stroke="white" stroke-opacity="0.32"/>
<path d="M704.786 344.909C730.115 326.163 453.927 242.774 308.154 485.182C162.38 727.591 -123.508 891.135 -139.136 891.135" stroke="white" stroke-opacity="0.32"/>
<path d="M704.786 344.909C730.115 326.163 453.927 242.774 308.154 485.182C162.38 727.591 -123.508 891.135 -139.136 891.135" stroke="white" stroke-opacity="0.32"/>
<path d="M704.786 393.03C730.115 374.284 453.927 290.895 308.154 533.304C162.38 775.712 -123.508 939.256 -139.136 939.256" stroke="white" stroke-opacity="0.32"/>
<path d="M704.786 393.03C730.115 374.284 453.927 290.895 308.154 533.304C162.38 775.712 -123.508 939.256 -139.136 939.256" stroke="white" stroke-opacity="0.32"/>
<path d="M704.786 426.03C730.115 407.284 453.927 323.895 308.154 566.304C162.38 808.712 -123.508 972.256 -139.136 972.256" stroke="white" stroke-opacity="0.32"/>
<path d="M704.786 426.03C730.115 407.284 453.927 323.895 308.154 566.304C162.38 808.712 -123.508 972.256 -139.136 972.256" stroke="white" stroke-opacity="0.32"/>
</g>
<rect x="133" y="24" width="280" height="455" rx="16" fill="#1D5D9B"/>
<rect x="247" y="24" width="166" height="455" rx="16" fill="#ccccccab"/>
<rect width="330" height="503" rx="16" fill="#CCCCCC"/>
</svg>
