<svg width="32" height="32" viewBox="0 0 32 32" fill="none" xmlns="http://www.w3.org/2000/svg">
<circle cx="16" cy="16" r="16" fill="#1D5D9B"/>
<path d="M12.008 20H22V10.6666C22 9.93131 21.402 9.33331 20.6667 9.33331H12C11.196 9.33331 10 9.86598 10 11.3333V20.6666C10 22.134 11.196 22.6666 12 22.6666H22V21.3333H12.008C11.7 21.3253 11.3333 21.204 11.3333 20.6666C11.3333 20.5993 11.3393 20.5393 11.3493 20.4846C11.424 20.1006 11.7387 20.0066 12.008 20ZM13.7653 13.0946C14.0428 12.8207 14.4171 12.6671 14.807 12.6671C15.1969 12.6671 15.5712 12.8207 15.8487 13.0946L15.998 13.2406L16.1467 13.0946C16.4243 12.8206 16.7986 12.667 17.1887 12.667C17.5787 12.667 17.9531 12.8206 18.2307 13.0946C18.3684 13.2271 18.4779 13.3859 18.5527 13.5617C18.6276 13.7375 18.6661 13.9266 18.6661 14.1176C18.6661 14.3087 18.6276 14.4978 18.5527 14.6736C18.4779 14.8493 18.3684 15.0082 18.2307 15.1406L15.9987 17.3333L13.766 15.1406C13.6282 15.0083 13.5185 14.8495 13.4436 14.6737C13.3686 14.498 13.33 14.3089 13.3299 14.1178C13.3298 13.9267 13.3684 13.7376 13.4432 13.5618C13.518 13.386 13.6276 13.2271 13.7653 13.0946Z" fill="white"/>
</svg>
