<svg xmlns="http://www.w3.org/2000/svg" width="19" height="21" viewBox="0 0 19 21" fill="none">
<path d="M2.85 0V1.90909H1.9C0.8455 1.90909 0 2.75864 0 3.81818V17.1818C0 17.6881 0.200178 18.1737 0.556497 18.5317C0.912816 18.8898 1.39609 19.0909 1.9 19.0909H7.695C8.892 20.2745 10.5355 21 12.35 21C16.0265 21 19 18.0123 19 14.3182C19 12.495 18.278 10.8436 17.1 9.64091V3.81818C17.1 3.31186 16.8998 2.82627 16.5435 2.46825C16.1872 2.11023 15.7039 1.90909 15.2 1.90909H14.25V0H12.35V1.90909H4.75V0M1.9 3.81818H15.2V5.72727H1.9M1.9 7.63636H15.2V8.27591C14.3355 7.86545 13.3665 7.63636 12.35 7.63636C8.6735 7.63636 5.7 10.6241 5.7 14.3182C5.7 15.3395 5.928 16.3132 6.3365 17.1818H1.9M12.35 9.68864C14.896 9.68864 16.9575 11.76 16.9575 14.3182C16.9575 16.8764 14.896 18.9477 12.35 18.9477C9.804 18.9477 7.7425 16.8764 7.7425 14.3182C7.7425 11.76 9.804 9.68864 12.35 9.68864ZM11.4 11.4545V14.9768L14.4305 16.7332L15.143 15.4923L12.825 14.1464V11.4545H11.4Z" fill="#1D5D9B"/>
</svg>